<mxfile host="app.diagrams.net" agent="Mozilla/5.0 (Windows NT 10.0; Win64; x64) AppleWebKit/537.36 (KHTML, like Gecko) Chrome/138.0.0.0 Safari/537.36" scale="1" border="0" version="27.1.4">
  <diagram name="Page-1" id="izAtYDucVRWAzUvikUnf">
    <mxGraphModel dx="1708" dy="773" grid="1" gridSize="10" guides="1" tooltips="1" connect="1" arrows="1" fold="1" page="1" pageScale="1" pageWidth="850" pageHeight="1100" math="0" shadow="0">
      <root>
        <mxCell id="0" />
        <mxCell id="1" parent="0" />
        <mxCell id="aihMZKnKOTb7IvnIWX-c-1" value="BLASTp&amp;nbsp;&lt;div&gt;result&lt;/div&gt;" style="shape=parallelogram;html=1;strokeWidth=2;perimeter=parallelogramPerimeter;whiteSpace=wrap;rounded=1;arcSize=12;size=0.23;fillColor=#dae8fc;strokeColor=#6c8ebf;" parent="1" vertex="1">
          <mxGeometry x="30" y="40" width="100" height="60" as="geometry" />
        </mxCell>
        <mxCell id="aihMZKnKOTb7IvnIWX-c-2" value="Minimum&lt;div&gt;palign global&lt;/div&gt;&lt;div&gt;&amp;gt;= 0.8&lt;/div&gt;" style="strokeWidth=2;html=1;shape=mxgraph.flowchart.decision;whiteSpace=wrap;fillColor=#fff2cc;strokeColor=#d6b656;" parent="1" vertex="1">
          <mxGeometry x="30" y="150" width="100" height="100" as="geometry" />
        </mxCell>
        <mxCell id="aihMZKnKOTb7IvnIWX-c-4" value="0.4&amp;nbsp;&lt;span style=&quot;background-color: initial;&quot;&gt;&amp;lt;=&lt;/span&gt;&lt;div&gt;Minimum&lt;br&gt;&lt;div&gt;&lt;div&gt;palign global&lt;/div&gt;&lt;div&gt;&amp;lt; 0.8&lt;/div&gt;&lt;/div&gt;&lt;/div&gt;" style="strokeWidth=2;html=1;shape=mxgraph.flowchart.decision;whiteSpace=wrap;fillColor=#fff2cc;strokeColor=#d6b656;" parent="1" vertex="1">
          <mxGeometry x="300" y="220" width="100" height="100" as="geometry" />
        </mxCell>
        <mxCell id="aihMZKnKOTb7IvnIWX-c-5" style="edgeStyle=orthogonalEdgeStyle;rounded=0;orthogonalLoop=1;jettySize=auto;html=1;entryX=0.5;entryY=0;entryDx=0;entryDy=0;entryPerimeter=0;" parent="1" source="aihMZKnKOTb7IvnIWX-c-2" target="aihMZKnKOTb7IvnIWX-c-4" edge="1">
          <mxGeometry relative="1" as="geometry" />
        </mxCell>
        <mxCell id="aihMZKnKOTb7IvnIWX-c-24" value="False" style="edgeLabel;html=1;align=center;verticalAlign=middle;resizable=0;points=[];" parent="aihMZKnKOTb7IvnIWX-c-5" vertex="1" connectable="0">
          <mxGeometry x="-0.4588" relative="1" as="geometry">
            <mxPoint as="offset" />
          </mxGeometry>
        </mxCell>
        <mxCell id="aihMZKnKOTb7IvnIWX-c-7" style="edgeStyle=orthogonalEdgeStyle;rounded=0;orthogonalLoop=1;jettySize=auto;html=1;entryX=0.533;entryY=0.075;entryDx=0;entryDy=0;entryPerimeter=0;" parent="1" source="aihMZKnKOTb7IvnIWX-c-4" edge="1" target="54sIOpod9JA04y5OdKbL-10">
          <mxGeometry relative="1" as="geometry">
            <mxPoint x="710" y="840" as="targetPoint" />
            <Array as="points">
              <mxPoint x="710" y="270" />
              <mxPoint x="710" y="840" />
            </Array>
          </mxGeometry>
        </mxCell>
        <mxCell id="aihMZKnKOTb7IvnIWX-c-25" value="False" style="edgeLabel;html=1;align=center;verticalAlign=middle;resizable=0;points=[];" parent="aihMZKnKOTb7IvnIWX-c-7" vertex="1" connectable="0">
          <mxGeometry x="-0.0471" y="3" relative="1" as="geometry">
            <mxPoint as="offset" />
          </mxGeometry>
        </mxCell>
        <mxCell id="aihMZKnKOTb7IvnIWX-c-14" style="edgeStyle=orthogonalEdgeStyle;rounded=0;orthogonalLoop=1;jettySize=auto;html=1;entryX=0.5;entryY=0.016;entryDx=0;entryDy=0;entryPerimeter=0;" parent="1" source="aihMZKnKOTb7IvnIWX-c-8" edge="1" target="54sIOpod9JA04y5OdKbL-1">
          <mxGeometry relative="1" as="geometry">
            <mxPoint x="80" y="840" as="targetPoint" />
          </mxGeometry>
        </mxCell>
        <mxCell id="aihMZKnKOTb7IvnIWX-c-19" value="True" style="edgeLabel;html=1;align=center;verticalAlign=middle;resizable=0;points=[];" parent="aihMZKnKOTb7IvnIWX-c-14" vertex="1" connectable="0">
          <mxGeometry x="-0.2702" y="-1" relative="1" as="geometry">
            <mxPoint as="offset" />
          </mxGeometry>
        </mxCell>
        <mxCell id="aihMZKnKOTb7IvnIWX-c-8" value="BSR &amp;gt;= 0.6" style="strokeWidth=2;html=1;shape=mxgraph.flowchart.decision;whiteSpace=wrap;fillColor=#fff2cc;strokeColor=#d6b656;" parent="1" vertex="1">
          <mxGeometry x="30" y="290" width="100" height="100" as="geometry" />
        </mxCell>
        <mxCell id="aihMZKnKOTb7IvnIWX-c-9" style="edgeStyle=orthogonalEdgeStyle;rounded=0;orthogonalLoop=1;jettySize=auto;html=1;entryX=0.5;entryY=0;entryDx=0;entryDy=0;entryPerimeter=0;" parent="1" source="aihMZKnKOTb7IvnIWX-c-2" target="aihMZKnKOTb7IvnIWX-c-8" edge="1">
          <mxGeometry relative="1" as="geometry" />
        </mxCell>
        <mxCell id="aihMZKnKOTb7IvnIWX-c-23" value="True" style="edgeLabel;html=1;align=center;verticalAlign=middle;resizable=0;points=[];" parent="aihMZKnKOTb7IvnIWX-c-9" vertex="1" connectable="0">
          <mxGeometry x="-0.1" y="2" relative="1" as="geometry">
            <mxPoint as="offset" />
          </mxGeometry>
        </mxCell>
        <mxCell id="aihMZKnKOTb7IvnIWX-c-15" style="edgeStyle=orthogonalEdgeStyle;rounded=0;orthogonalLoop=1;jettySize=auto;html=1;entryX=0.507;entryY=0.055;entryDx=0;entryDy=0;entryPerimeter=0;" parent="1" source="aihMZKnKOTb7IvnIWX-c-10" edge="1" target="54sIOpod9JA04y5OdKbL-2">
          <mxGeometry relative="1" as="geometry">
            <mxPoint x="190" y="840" as="targetPoint" />
          </mxGeometry>
        </mxCell>
        <mxCell id="aihMZKnKOTb7IvnIWX-c-21" value="True" style="edgeLabel;html=1;align=center;verticalAlign=middle;resizable=0;points=[];" parent="aihMZKnKOTb7IvnIWX-c-15" vertex="1" connectable="0">
          <mxGeometry x="-0.2684" y="-2" relative="1" as="geometry">
            <mxPoint as="offset" />
          </mxGeometry>
        </mxCell>
        <mxCell id="aihMZKnKOTb7IvnIWX-c-18" style="edgeStyle=orthogonalEdgeStyle;rounded=0;orthogonalLoop=1;jettySize=auto;html=1;entryX=0.501;entryY=0.076;entryDx=0;entryDy=0;entryPerimeter=0;" parent="1" source="aihMZKnKOTb7IvnIWX-c-10" edge="1" target="54sIOpod9JA04y5OdKbL-3">
          <mxGeometry relative="1" as="geometry">
            <mxPoint x="260" y="840" as="targetPoint" />
            <Array as="points">
              <mxPoint x="261" y="420" />
              <mxPoint x="261" y="840" />
            </Array>
          </mxGeometry>
        </mxCell>
        <mxCell id="aihMZKnKOTb7IvnIWX-c-22" value="False" style="edgeLabel;html=1;align=center;verticalAlign=middle;resizable=0;points=[];" parent="aihMZKnKOTb7IvnIWX-c-18" vertex="1" connectable="0">
          <mxGeometry x="0.016" y="2" relative="1" as="geometry">
            <mxPoint as="offset" />
          </mxGeometry>
        </mxCell>
        <mxCell id="aihMZKnKOTb7IvnIWX-c-10" value="frequency ratio&lt;div&gt;&amp;lt;= 0.1&lt;/div&gt;" style="strokeWidth=2;html=1;shape=mxgraph.flowchart.decision;whiteSpace=wrap;fillColor=#fff2cc;strokeColor=#d6b656;" parent="1" vertex="1">
          <mxGeometry x="140" y="370" width="100" height="100" as="geometry" />
        </mxCell>
        <mxCell id="aihMZKnKOTb7IvnIWX-c-11" style="edgeStyle=orthogonalEdgeStyle;rounded=0;orthogonalLoop=1;jettySize=auto;html=1;entryX=0.5;entryY=0;entryDx=0;entryDy=0;entryPerimeter=0;" parent="1" source="aihMZKnKOTb7IvnIWX-c-8" target="aihMZKnKOTb7IvnIWX-c-10" edge="1">
          <mxGeometry relative="1" as="geometry" />
        </mxCell>
        <mxCell id="aihMZKnKOTb7IvnIWX-c-20" value="False" style="edgeLabel;html=1;align=center;verticalAlign=middle;resizable=0;points=[];" parent="aihMZKnKOTb7IvnIWX-c-11" vertex="1" connectable="0">
          <mxGeometry x="-0.4" relative="1" as="geometry">
            <mxPoint as="offset" />
          </mxGeometry>
        </mxCell>
        <mxCell id="aihMZKnKOTb7IvnIWX-c-26" value="Pident &amp;gt;= 90" style="strokeWidth=2;html=1;shape=mxgraph.flowchart.decision;whiteSpace=wrap;fillColor=#fff2cc;strokeColor=#d6b656;" parent="1" vertex="1">
          <mxGeometry x="300" y="380" width="100" height="100" as="geometry" />
        </mxCell>
        <mxCell id="aihMZKnKOTb7IvnIWX-c-28" style="edgeStyle=orthogonalEdgeStyle;rounded=0;orthogonalLoop=1;jettySize=auto;html=1;entryX=0.5;entryY=0;entryDx=0;entryDy=0;entryPerimeter=0;" parent="1" source="aihMZKnKOTb7IvnIWX-c-4" target="aihMZKnKOTb7IvnIWX-c-26" edge="1">
          <mxGeometry relative="1" as="geometry" />
        </mxCell>
        <mxCell id="aihMZKnKOTb7IvnIWX-c-32" value="True" style="edgeLabel;html=1;align=center;verticalAlign=middle;resizable=0;points=[];" parent="aihMZKnKOTb7IvnIWX-c-28" vertex="1" connectable="0">
          <mxGeometry x="-0.1714" y="2" relative="1" as="geometry">
            <mxPoint as="offset" />
          </mxGeometry>
        </mxCell>
        <mxCell id="XQevxZxDs5nL-bSf4VhR-5" style="edgeStyle=orthogonalEdgeStyle;rounded=0;orthogonalLoop=1;jettySize=auto;html=1;entryX=0.506;entryY=0.057;entryDx=0;entryDy=0;entryPerimeter=0;" parent="1" edge="1" target="54sIOpod9JA04y5OdKbL-9">
          <mxGeometry relative="1" as="geometry">
            <mxPoint x="639" y="838" as="targetPoint" />
            <mxPoint x="619" y="638" as="sourcePoint" />
            <Array as="points">
              <mxPoint x="640" y="638" />
            </Array>
          </mxGeometry>
        </mxCell>
        <mxCell id="XQevxZxDs5nL-bSf4VhR-13" value="False" style="edgeLabel;html=1;align=center;verticalAlign=middle;resizable=0;points=[];" parent="XQevxZxDs5nL-bSf4VhR-5" vertex="1" connectable="0">
          <mxGeometry x="0.1402" y="1" relative="1" as="geometry">
            <mxPoint as="offset" />
          </mxGeometry>
        </mxCell>
        <mxCell id="XQevxZxDs5nL-bSf4VhR-11" style="edgeStyle=orthogonalEdgeStyle;rounded=0;orthogonalLoop=1;jettySize=auto;html=1;entryX=0.477;entryY=0.048;entryDx=0;entryDy=0;entryPerimeter=0;" parent="1" source="aihMZKnKOTb7IvnIWX-c-33" target="54sIOpod9JA04y5OdKbL-8" edge="1">
          <mxGeometry relative="1" as="geometry" />
        </mxCell>
        <mxCell id="XQevxZxDs5nL-bSf4VhR-12" value="True" style="edgeLabel;html=1;align=center;verticalAlign=middle;resizable=0;points=[];" parent="XQevxZxDs5nL-bSf4VhR-11" vertex="1" connectable="0">
          <mxGeometry x="-0.2973" y="-2" relative="1" as="geometry">
            <mxPoint as="offset" />
          </mxGeometry>
        </mxCell>
        <mxCell id="aihMZKnKOTb7IvnIWX-c-33" value="frequency ratio&lt;div&gt;&amp;lt;= 0.1&lt;/div&gt;" style="strokeWidth=2;html=1;shape=mxgraph.flowchart.decision;whiteSpace=wrap;fillColor=#fff2cc;strokeColor=#d6b656;" parent="1" vertex="1">
          <mxGeometry x="540" y="590" width="100" height="100" as="geometry" />
        </mxCell>
        <mxCell id="aihMZKnKOTb7IvnIWX-c-34" style="edgeStyle=orthogonalEdgeStyle;rounded=0;orthogonalLoop=1;jettySize=auto;html=1;entryX=0.5;entryY=0;entryDx=0;entryDy=0;entryPerimeter=0;" parent="1" source="aihMZKnKOTb7IvnIWX-c-26" target="XQevxZxDs5nL-bSf4VhR-1" edge="1">
          <mxGeometry relative="1" as="geometry" />
        </mxCell>
        <mxCell id="aihMZKnKOTb7IvnIWX-c-35" value="False" style="edgeLabel;html=1;align=center;verticalAlign=middle;resizable=0;points=[];" parent="aihMZKnKOTb7IvnIWX-c-34" vertex="1" connectable="0">
          <mxGeometry x="-0.225" y="3" relative="1" as="geometry">
            <mxPoint as="offset" />
          </mxGeometry>
        </mxCell>
        <mxCell id="aihMZKnKOTb7IvnIWX-c-36" value="Maximum&lt;div&gt;palign global&lt;/div&gt;&lt;div&gt;&amp;gt;= 0.8&lt;/div&gt;" style="strokeWidth=2;html=1;shape=mxgraph.flowchart.decision;whiteSpace=wrap;fillColor=#fff2cc;strokeColor=#d6b656;" parent="1" vertex="1">
          <mxGeometry x="300" y="530" width="100" height="100" as="geometry" />
        </mxCell>
        <mxCell id="aihMZKnKOTb7IvnIWX-c-37" style="edgeStyle=orthogonalEdgeStyle;rounded=0;orthogonalLoop=1;jettySize=auto;html=1;entryX=0.5;entryY=0;entryDx=0;entryDy=0;entryPerimeter=0;" parent="1" source="aihMZKnKOTb7IvnIWX-c-26" target="aihMZKnKOTb7IvnIWX-c-36" edge="1">
          <mxGeometry relative="1" as="geometry" />
        </mxCell>
        <mxCell id="aihMZKnKOTb7IvnIWX-c-38" value="True" style="edgeLabel;html=1;align=center;verticalAlign=middle;resizable=0;points=[];" parent="aihMZKnKOTb7IvnIWX-c-37" vertex="1" connectable="0">
          <mxGeometry x="-0.2" relative="1" as="geometry">
            <mxPoint as="offset" />
          </mxGeometry>
        </mxCell>
        <mxCell id="aihMZKnKOTb7IvnIWX-c-53" style="edgeStyle=orthogonalEdgeStyle;rounded=0;orthogonalLoop=1;jettySize=auto;html=1;entryX=0.494;entryY=0.035;entryDx=0;entryDy=0;entryPerimeter=0;" parent="1" source="aihMZKnKOTb7IvnIWX-c-39" edge="1" target="54sIOpod9JA04y5OdKbL-6">
          <mxGeometry relative="1" as="geometry">
            <mxPoint x="460" y="840" as="targetPoint" />
          </mxGeometry>
        </mxCell>
        <mxCell id="aihMZKnKOTb7IvnIWX-c-54" value="True" style="edgeLabel;html=1;align=center;verticalAlign=middle;resizable=0;points=[];" parent="aihMZKnKOTb7IvnIWX-c-53" vertex="1" connectable="0">
          <mxGeometry x="-0.295" y="3" relative="1" as="geometry">
            <mxPoint x="-3" y="14" as="offset" />
          </mxGeometry>
        </mxCell>
        <mxCell id="aihMZKnKOTb7IvnIWX-c-55" style="edgeStyle=orthogonalEdgeStyle;rounded=0;orthogonalLoop=1;jettySize=auto;html=1;" parent="1" edge="1">
          <mxGeometry relative="1" as="geometry">
            <mxPoint x="509.5" y="840" as="targetPoint" />
            <mxPoint x="489.5" y="650" as="sourcePoint" />
          </mxGeometry>
        </mxCell>
        <mxCell id="aihMZKnKOTb7IvnIWX-c-56" value="False" style="edgeLabel;html=1;align=center;verticalAlign=middle;resizable=0;points=[];" parent="aihMZKnKOTb7IvnIWX-c-55" vertex="1" connectable="0">
          <mxGeometry x="0.2917" y="3" relative="1" as="geometry">
            <mxPoint as="offset" />
          </mxGeometry>
        </mxCell>
        <mxCell id="aihMZKnKOTb7IvnIWX-c-39" value="frequency ratio&lt;div&gt;&amp;lt;= 0.1&lt;/div&gt;" style="strokeWidth=2;html=1;shape=mxgraph.flowchart.decision;whiteSpace=wrap;fillColor=#fff2cc;strokeColor=#d6b656;" parent="1" vertex="1">
          <mxGeometry x="410" y="600" width="100" height="100" as="geometry" />
        </mxCell>
        <mxCell id="aihMZKnKOTb7IvnIWX-c-40" style="edgeStyle=orthogonalEdgeStyle;rounded=0;orthogonalLoop=1;jettySize=auto;html=1;entryX=0.5;entryY=0;entryDx=0;entryDy=0;entryPerimeter=0;" parent="1" source="aihMZKnKOTb7IvnIWX-c-36" target="aihMZKnKOTb7IvnIWX-c-39" edge="1">
          <mxGeometry relative="1" as="geometry" />
        </mxCell>
        <mxCell id="aihMZKnKOTb7IvnIWX-c-48" value="False" style="edgeLabel;html=1;align=center;verticalAlign=middle;resizable=0;points=[];" parent="aihMZKnKOTb7IvnIWX-c-40" vertex="1" connectable="0">
          <mxGeometry x="-0.275" y="-1" relative="1" as="geometry">
            <mxPoint as="offset" />
          </mxGeometry>
        </mxCell>
        <mxCell id="aihMZKnKOTb7IvnIWX-c-49" style="edgeStyle=orthogonalEdgeStyle;rounded=0;orthogonalLoop=1;jettySize=auto;html=1;entryX=0.499;entryY=0.055;entryDx=0;entryDy=0;entryPerimeter=0;" parent="1" source="aihMZKnKOTb7IvnIWX-c-43" edge="1" target="54sIOpod9JA04y5OdKbL-4">
          <mxGeometry relative="1" as="geometry">
            <mxPoint x="350" y="840" as="targetPoint" />
          </mxGeometry>
        </mxCell>
        <mxCell id="aihMZKnKOTb7IvnIWX-c-50" value="True" style="edgeLabel;html=1;align=center;verticalAlign=middle;resizable=0;points=[];" parent="aihMZKnKOTb7IvnIWX-c-49" vertex="1" connectable="0">
          <mxGeometry x="-0.1736" y="2" relative="1" as="geometry">
            <mxPoint as="offset" />
          </mxGeometry>
        </mxCell>
        <mxCell id="aihMZKnKOTb7IvnIWX-c-51" style="edgeStyle=orthogonalEdgeStyle;rounded=0;orthogonalLoop=1;jettySize=auto;html=1;entryX=0.505;entryY=0.066;entryDx=0;entryDy=0;entryPerimeter=0;" parent="1" edge="1" target="54sIOpod9JA04y5OdKbL-5">
          <mxGeometry relative="1" as="geometry">
            <mxPoint x="399" y="840" as="targetPoint" />
            <mxPoint x="369" y="720" as="sourcePoint" />
            <Array as="points">
              <mxPoint x="400" y="720" />
            </Array>
          </mxGeometry>
        </mxCell>
        <mxCell id="aihMZKnKOTb7IvnIWX-c-52" value="False" style="edgeLabel;html=1;align=center;verticalAlign=middle;resizable=0;points=[];" parent="aihMZKnKOTb7IvnIWX-c-51" vertex="1" connectable="0">
          <mxGeometry x="0.5587" relative="1" as="geometry">
            <mxPoint y="1" as="offset" />
          </mxGeometry>
        </mxCell>
        <mxCell id="aihMZKnKOTb7IvnIWX-c-43" value="frequency ratio&lt;div&gt;&amp;lt;= 0.1&lt;/div&gt;" style="strokeWidth=2;html=1;shape=mxgraph.flowchart.decision;whiteSpace=wrap;fillColor=#fff2cc;strokeColor=#d6b656;" parent="1" vertex="1">
          <mxGeometry x="300" y="670" width="100" height="100" as="geometry" />
        </mxCell>
        <mxCell id="aihMZKnKOTb7IvnIWX-c-44" style="edgeStyle=orthogonalEdgeStyle;rounded=0;orthogonalLoop=1;jettySize=auto;html=1;entryX=0.5;entryY=0;entryDx=0;entryDy=0;entryPerimeter=0;" parent="1" source="aihMZKnKOTb7IvnIWX-c-36" target="aihMZKnKOTb7IvnIWX-c-43" edge="1">
          <mxGeometry relative="1" as="geometry" />
        </mxCell>
        <mxCell id="aihMZKnKOTb7IvnIWX-c-46" value="True" style="edgeLabel;html=1;align=center;verticalAlign=middle;resizable=0;points=[];" parent="aihMZKnKOTb7IvnIWX-c-44" vertex="1" connectable="0">
          <mxGeometry x="0.3" relative="1" as="geometry">
            <mxPoint y="-6" as="offset" />
          </mxGeometry>
        </mxCell>
        <mxCell id="54sIOpod9JA04y5OdKbL-1" value="1a" style="text;html=1;align=center;verticalAlign=middle;resizable=0;points=[];autosize=1;strokeColor=none;fillColor=none;" parent="1" vertex="1">
          <mxGeometry x="60" y="838" width="40" height="30" as="geometry" />
        </mxCell>
        <mxCell id="54sIOpod9JA04y5OdKbL-2" value="1b" style="text;html=1;align=center;verticalAlign=middle;resizable=0;points=[];autosize=1;strokeColor=none;fillColor=none;" parent="1" vertex="1">
          <mxGeometry x="170" y="838" width="40" height="30" as="geometry" />
        </mxCell>
        <mxCell id="54sIOpod9JA04y5OdKbL-3" value="1c" style="text;html=1;align=center;verticalAlign=middle;resizable=0;points=[];autosize=1;strokeColor=none;fillColor=none;" parent="1" vertex="1">
          <mxGeometry x="240" y="838" width="40" height="30" as="geometry" />
        </mxCell>
        <mxCell id="54sIOpod9JA04y5OdKbL-4" value="2a" style="text;html=1;align=center;verticalAlign=middle;resizable=0;points=[];autosize=1;strokeColor=none;fillColor=none;" parent="1" vertex="1">
          <mxGeometry x="330" y="838" width="40" height="30" as="geometry" />
        </mxCell>
        <mxCell id="54sIOpod9JA04y5OdKbL-5" value="2b" style="text;html=1;align=center;verticalAlign=middle;resizable=0;points=[];autosize=1;strokeColor=none;fillColor=none;" parent="1" vertex="1">
          <mxGeometry x="380" y="838" width="40" height="30" as="geometry" />
        </mxCell>
        <mxCell id="54sIOpod9JA04y5OdKbL-6" value="3a" style="text;html=1;align=center;verticalAlign=middle;resizable=0;points=[];autosize=1;strokeColor=none;fillColor=none;" parent="1" vertex="1">
          <mxGeometry x="440" y="838" width="40" height="30" as="geometry" />
        </mxCell>
        <mxCell id="54sIOpod9JA04y5OdKbL-7" value="3b" style="text;html=1;align=center;verticalAlign=middle;resizable=0;points=[];autosize=1;strokeColor=none;fillColor=none;" parent="1" vertex="1">
          <mxGeometry x="490" y="838" width="40" height="30" as="geometry" />
        </mxCell>
        <mxCell id="54sIOpod9JA04y5OdKbL-8" value="4a" style="text;html=1;align=center;verticalAlign=middle;resizable=0;points=[];autosize=1;strokeColor=none;fillColor=none;" parent="1" vertex="1">
          <mxGeometry x="570" y="838" width="40" height="30" as="geometry" />
        </mxCell>
        <mxCell id="54sIOpod9JA04y5OdKbL-9" value="4b" style="text;html=1;align=center;verticalAlign=middle;resizable=0;points=[];autosize=1;strokeColor=none;fillColor=none;" parent="1" vertex="1">
          <mxGeometry x="620" y="838" width="40" height="30" as="geometry" />
        </mxCell>
        <mxCell id="54sIOpod9JA04y5OdKbL-10" value="5" style="text;html=1;align=center;verticalAlign=middle;resizable=0;points=[];autosize=1;strokeColor=none;fillColor=none;" parent="1" vertex="1">
          <mxGeometry x="695" y="838" width="30" height="30" as="geometry" />
        </mxCell>
        <mxCell id="XQevxZxDs5nL-bSf4VhR-6" style="edgeStyle=orthogonalEdgeStyle;rounded=0;orthogonalLoop=1;jettySize=auto;html=1;entryX=0.506;entryY=0.111;entryDx=0;entryDy=0;entryPerimeter=0;" parent="1" source="XQevxZxDs5nL-bSf4VhR-1" edge="1" target="XQevxZxDs5nL-bSf4VhR-7">
          <mxGeometry relative="1" as="geometry">
            <mxPoint x="680" y="840" as="targetPoint" />
          </mxGeometry>
        </mxCell>
        <mxCell id="XQevxZxDs5nL-bSf4VhR-10" value="False" style="edgeLabel;html=1;align=center;verticalAlign=middle;resizable=0;points=[];" parent="XQevxZxDs5nL-bSf4VhR-6" vertex="1" connectable="0">
          <mxGeometry x="-0.8896" relative="1" as="geometry">
            <mxPoint as="offset" />
          </mxGeometry>
        </mxCell>
        <mxCell id="XQevxZxDs5nL-bSf4VhR-1" value="Maximum&lt;div&gt;palign global&lt;/div&gt;&lt;div&gt;&amp;gt;= 0.8&lt;/div&gt;" style="strokeWidth=2;html=1;shape=mxgraph.flowchart.decision;whiteSpace=wrap;fillColor=#fff2cc;strokeColor=#d6b656;" parent="1" vertex="1">
          <mxGeometry x="540" y="450" width="100" height="100" as="geometry" />
        </mxCell>
        <mxCell id="XQevxZxDs5nL-bSf4VhR-2" style="edgeStyle=orthogonalEdgeStyle;rounded=0;orthogonalLoop=1;jettySize=auto;html=1;entryX=0.5;entryY=0;entryDx=0;entryDy=0;entryPerimeter=0;" parent="1" source="XQevxZxDs5nL-bSf4VhR-1" target="aihMZKnKOTb7IvnIWX-c-33" edge="1">
          <mxGeometry relative="1" as="geometry" />
        </mxCell>
        <mxCell id="XQevxZxDs5nL-bSf4VhR-3" value="True" style="edgeLabel;html=1;align=center;verticalAlign=middle;resizable=0;points=[];" parent="XQevxZxDs5nL-bSf4VhR-2" vertex="1" connectable="0">
          <mxGeometry x="-0.1" y="2" relative="1" as="geometry">
            <mxPoint as="offset" />
          </mxGeometry>
        </mxCell>
        <mxCell id="XQevxZxDs5nL-bSf4VhR-7" value="4c" style="text;html=1;align=center;verticalAlign=middle;resizable=0;points=[];autosize=1;strokeColor=none;fillColor=none;" parent="1" vertex="1">
          <mxGeometry x="660" y="838" width="40" height="30" as="geometry" />
        </mxCell>
        <mxCell id="zaRJ_D5USW0YCFCpEoLO-1" value="BLASTn&amp;nbsp;&lt;div&gt;result&lt;/div&gt;" style="shape=parallelogram;html=1;strokeWidth=2;perimeter=parallelogramPerimeter;whiteSpace=wrap;rounded=1;arcSize=12;size=0.23;fillColor=#dae8fc;strokeColor=#6c8ebf;" vertex="1" parent="1">
          <mxGeometry x="725" y="40" width="100" height="60" as="geometry" />
        </mxCell>
        <mxCell id="zaRJ_D5USW0YCFCpEoLO-2" value="" style="endArrow=classic;html=1;rounded=0;strokeColor=default;align=center;verticalAlign=middle;fontFamily=Helvetica;fontSize=11;fontColor=default;labelBackgroundColor=default;edgeStyle=orthogonalEdgeStyle;exitX=1;exitY=0.5;exitDx=0;exitDy=0;entryX=0;entryY=0.5;entryDx=0;entryDy=0;" edge="1" parent="1" source="aihMZKnKOTb7IvnIWX-c-1" target="zaRJ_D5USW0YCFCpEoLO-1">
          <mxGeometry relative="1" as="geometry">
            <mxPoint x="510" y="140" as="sourcePoint" />
            <mxPoint x="610" y="140" as="targetPoint" />
          </mxGeometry>
        </mxCell>
        <mxCell id="zaRJ_D5USW0YCFCpEoLO-3" value="Not matched" style="edgeLabel;resizable=0;html=1;;align=center;verticalAlign=middle;fontFamily=Helvetica;fontSize=11;fontColor=default;labelBackgroundColor=default;" connectable="0" vertex="1" parent="zaRJ_D5USW0YCFCpEoLO-2">
          <mxGeometry relative="1" as="geometry" />
        </mxCell>
        <mxCell id="zaRJ_D5USW0YCFCpEoLO-4" value="" style="endArrow=classic;html=1;rounded=0;strokeColor=default;align=center;verticalAlign=middle;fontFamily=Helvetica;fontSize=11;fontColor=default;labelBackgroundColor=default;edgeStyle=orthogonalEdgeStyle;exitX=0.393;exitY=1.006;exitDx=0;exitDy=0;entryX=0.484;entryY=0.048;entryDx=0;entryDy=0;entryPerimeter=0;exitPerimeter=0;" edge="1" parent="1" source="zaRJ_D5USW0YCFCpEoLO-1" target="zaRJ_D5USW0YCFCpEoLO-11">
          <mxGeometry relative="1" as="geometry">
            <mxPoint x="760.0000000000001" y="98.50000000000001" as="sourcePoint" />
            <mxPoint x="774.2099999999999" y="838" as="targetPoint" />
            <Array as="points">
              <mxPoint x="765" y="100" />
            </Array>
          </mxGeometry>
        </mxCell>
        <mxCell id="zaRJ_D5USW0YCFCpEoLO-5" value="Matched" style="edgeLabel;resizable=0;html=1;;align=center;verticalAlign=middle;fontFamily=Helvetica;fontSize=11;fontColor=default;labelBackgroundColor=default;" connectable="0" vertex="1" parent="zaRJ_D5USW0YCFCpEoLO-4">
          <mxGeometry relative="1" as="geometry" />
        </mxCell>
        <mxCell id="zaRJ_D5USW0YCFCpEoLO-6" value="" style="endArrow=classic;html=1;rounded=0;strokeColor=default;align=center;verticalAlign=middle;fontFamily=Helvetica;fontSize=11;fontColor=default;labelBackgroundColor=default;edgeStyle=orthogonalEdgeStyle;exitX=0.5;exitY=1;exitDx=0;exitDy=0;" edge="1" parent="1" source="aihMZKnKOTb7IvnIWX-c-1">
          <mxGeometry relative="1" as="geometry">
            <mxPoint x="260" y="210" as="sourcePoint" />
            <mxPoint x="80" y="150" as="targetPoint" />
          </mxGeometry>
        </mxCell>
        <mxCell id="zaRJ_D5USW0YCFCpEoLO-7" value="Matched" style="edgeLabel;resizable=0;html=1;;align=center;verticalAlign=middle;fontFamily=Helvetica;fontSize=11;fontColor=default;labelBackgroundColor=default;" connectable="0" vertex="1" parent="zaRJ_D5USW0YCFCpEoLO-6">
          <mxGeometry relative="1" as="geometry" />
        </mxCell>
        <mxCell id="zaRJ_D5USW0YCFCpEoLO-11" value="6" style="text;html=1;align=center;verticalAlign=middle;resizable=0;points=[];autosize=1;strokeColor=none;fillColor=none;" vertex="1" parent="1">
          <mxGeometry x="750" y="838" width="30" height="30" as="geometry" />
        </mxCell>
        <mxCell id="zaRJ_D5USW0YCFCpEoLO-17" value="7" style="text;html=1;align=center;verticalAlign=middle;resizable=0;points=[];autosize=1;strokeColor=none;fillColor=none;" vertex="1" parent="1">
          <mxGeometry x="800" y="838" width="30" height="30" as="geometry" />
        </mxCell>
        <mxCell id="zaRJ_D5USW0YCFCpEoLO-18" value="" style="endArrow=classic;html=1;rounded=0;strokeColor=default;align=center;verticalAlign=middle;fontFamily=Helvetica;fontSize=11;fontColor=default;labelBackgroundColor=default;edgeStyle=orthogonalEdgeStyle;exitX=1;exitY=0.5;exitDx=0;exitDy=0;entryX=0.5;entryY=0.033;entryDx=0;entryDy=0;entryPerimeter=0;" edge="1" parent="1" source="zaRJ_D5USW0YCFCpEoLO-1" target="zaRJ_D5USW0YCFCpEoLO-17">
          <mxGeometry relative="1" as="geometry">
            <mxPoint x="920" y="300" as="sourcePoint" />
            <mxPoint x="1020" y="300" as="targetPoint" />
            <Array as="points">
              <mxPoint x="814" y="469" />
              <mxPoint x="814" y="469" />
              <mxPoint x="814" y="839" />
            </Array>
          </mxGeometry>
        </mxCell>
        <mxCell id="zaRJ_D5USW0YCFCpEoLO-19" value="Not matched" style="edgeLabel;resizable=0;html=1;;align=center;verticalAlign=middle;fontFamily=Helvetica;fontSize=11;fontColor=default;labelBackgroundColor=default;" connectable="0" vertex="1" parent="zaRJ_D5USW0YCFCpEoLO-18">
          <mxGeometry relative="1" as="geometry" />
        </mxCell>
      </root>
    </mxGraphModel>
  </diagram>
</mxfile>
